# xmcd CD database file
#
# Track frame offsets:
#	150
#	15750
#	47850
#	70950
#	92100
#	112950
#	135450
#	163125
#	178864
#	207476
#	230876
#	250563
#	269125
#	292075
#	312387
#
# Disc length: 4423 seconds
#
# Revision: 3
# Processed by: cddbd v1.5.2PL0 Copyright (c) Steve Scherf et al.
# Submitted via: CDex 1.70beta3
#
DISCID=e211450f
DTITLE=Barbarian On The Groove - Classics plus - 02
DYEAR=2008
DGENRE=JPop
TTITLE0=茶太 - バルス
TTITLE1=Rinko,Miglen - 天国の扉
TTITLE2=Millie - 遙かなる空 ～Pavane pour une infante defunte～
TTITLE3=Miglen - 夕陽の旋律
TTITLE4=茶太 - 白い月の夜
TTITLE5=真理絵 - バタフライ
TTITLE6=霜月はるか - 光の絆
TTITLE7=ゆいこ - スマッシュ
TTITLE8=霜月はるか - 深く眠れ
TTITLE9=片霧烈火 - 丘陵想起
TTITLE10=茶太 - 風が凪がれる刹那
TTITLE11=真理絵 - マルディマグラ
TTITLE12=霜月はるか - 君に降る雨
TTITLE13=真理絵 - 荒野の霞
TTITLE14=Miglen - コン・グランデッツァ
EXTD=YEAR: 2008
EXTT0=
EXTT1=
EXTT2=
EXTT3=
EXTT4=
EXTT5=
EXTT6=
EXTT7=
EXTT8=
EXTT9=
EXTT10=
EXTT11=
EXTT12=
EXTT13=
EXTT14=
PLAYORDER=
